<?xml version="1.0" encoding="UTF-8"?><svg id="a" xmlns="http://www.w3.org/2000/svg" viewBox="0 0 500 500"><path d="m442.66,323.93s-26.42,22.71-26.42,42.51,11.83,29.2,26.42,29.2,26.42-9.4,26.42-29.2-26.42-42.51-26.42-42.51Z"/><path d="m331.81,245.35h81.84v45.54c0,10.82,8.77,19.59,19.59,19.59h16.24c10.82,0,19.59-8.77,19.59-19.59v-81.4c0-10.77-8.73-19.49-19.49-19.49-.03,0-.07,0-.1,0h-117.67v-67.37h13.33v-23.93h-55.67v-63.31l-5.9-2.92c-30.08-14.91-60.79-22.47-91.3-22.47-64.25,0-121.75,33.79-153.79,90.33-17.35,31.02-25.86,66.21-24.61,101.73,1.18,39.51,13.38,78.78,36.1,116.74l.12.2.12.18c4.46,6.79,11.15,10.69,18.19,10.69,4.97.01,9.73-2,13.18-5.58,3.99-4.13,6.09-10.04,5.89-16.66l-.08-2.82-1.45-2.39c-19.33-31.55-29.77-64.16-31.05-97.02-1.12-29.63,5.58-58.29,19.33-82.9,13.01-23.5,32.58-42.71,56.33-55.27l80.04,80.04v42.7h-2.1c-10.77,0-19.49,8.73-19.49,19.49v16.37c0,10.76,8.73,19.49,19.49,19.49h2.1v220.74H77.22v28.24h391.85v-28.24h-137.26v-220.74ZM169.14,53.97c8.25-1.49,16.62-2.24,25.01-2.23,21.78,0,43.93,4.85,66.02,14.41v32.55h-46.3l-44.73-44.73Z"/></svg>
