<?xml version="1.0" encoding="UTF-8"?>
<svg id="Layer_1" data-name="Layer 1" xmlns="http://www.w3.org/2000/svg" version="1.1" viewBox="0 0 18 20">
  <defs>
    <style>
      .cls-1 {
        fill: #000;
        stroke-width: 0px;
      }
    </style>
  </defs>
  <path class="cls-1" d="M15,20c-.8,0-1.5-.3-2.1-.9s-.9-1.3-.9-2.1,0-.2,0-.4c0-.1,0-.2,0-.3l-7.1-4.1c-.3.2-.6.4-1,.6-.3.1-.7.2-1.1.2-.8,0-1.5-.3-2.1-.9-.6-.6-.9-1.3-.9-2.1s.3-1.5.9-2.1c.6-.6,1.3-.9,2.1-.9s.8,0,1.1.2c.3.1.7.3,1,.6l7.1-4.1c0-.1,0-.2,0-.3,0-.1,0-.2,0-.4,0-.8.3-1.5.9-2.1.6-.6,1.3-.9,2.1-.9s1.5.3,2.1.9c.6.6.9,1.3.9,2.1s-.3,1.5-.9,2.1-1.3.9-2.1.9-.8,0-1.1-.2c-.3-.1-.7-.3-.9-.6l-7,4.1c0,0,0,.2,0,.3,0,.1,0,.2,0,.4s0,.2,0,.4c0,.1,0,.2,0,.3l7,4.1c.3-.2.6-.4.9-.6.4-.1.7-.2,1.1-.2.8,0,1.5.3,2.1.9s.9,1.3.9,2.1-.3,1.5-.9,2.1-1.3.9-2.1.9ZM15,4c.3,0,.5,0,.7-.3.2-.2.3-.4.3-.7s0-.5-.3-.7c-.2-.2-.4-.3-.7-.3s-.5,0-.7.3c-.2.2-.3.4-.3.7s0,.5.3.7c.2.2.4.3.7.3ZM3,11c.3,0,.5,0,.7-.3.2-.2.3-.4.3-.7s0-.5-.3-.7c-.2-.2-.4-.3-.7-.3s-.5,0-.7.3c-.2.2-.3.4-.3.7s0,.5.3.7c.2.2.4.3.7.3ZM15,18c.3,0,.5,0,.7-.3s.3-.4.3-.7,0-.5-.3-.7-.4-.3-.7-.3-.5,0-.7.3-.3.4-.3.7,0,.5.3.7.4.3.7.3Z"/>
</svg>