<?xml version="1.0" encoding="utf-8"?>
<!-- Generator: Adobe Illustrator 26.0.3, SVG Export Plug-In . SVG Version: 6.00 Build 0)  -->
<svg version="1.1" id="Layer_1" xmlns="http://www.w3.org/2000/svg" xmlns:xlink="http://www.w3.org/1999/xlink" x="0px" y="0px"
	 viewBox="0 0 60 84" style="enable-background:new 0 0 60 84;" xml:space="preserve">
<style type="text/css">
	.st0{fill:#0052CC;}
</style>
<path class="st0" d="M38.9,0l9.7,5.6l-38.2,22L0.7,22L38.9,0z"/>
<path class="st0" d="M49,6.7L11,28.6l0,11L49,17.8L49,6.7z"/>
<path class="st0" d="M33.7,28.3l-22.6,13l0,11l22.6-13L33.7,28.3z"/>
<path class="st0" d="M25,45.7l-14,8l0,11l14-8L25,45.7z"/>
<path class="st0" d="M0,23l9.8,5.6l0,11L0,34.1L0,23z"/>
<path class="st0" d="M0.1,35.7l9.6,5.5l0,11l-9.6-5.5L0.1,35.7z"/>
<path class="st0" d="M0.1,48.2l9.6,5.5l0,11.8L0.1,60L0.1,48.2z"/>
<path class="st0" d="M21.6,84l-9.7-5.6l37.7-21.7l9.7,5.6L21.6,84z"/>
<path class="st0" d="M11.1,77.5L49,55.7l0-11L11.1,66.4L11.1,77.5z"/>
<path class="st0" d="M26.3,56l22.6-13l0-11l-22.6,13L26.3,56z"/>
<path class="st0" d="M35,38.5l14-8l0-11l-14,8L35,38.5z"/>
<path class="st0" d="M60,61.3l-9.8-5.6l0-11l9.8,5.6L60,61.3z"/>
<path class="st0" d="M59.9,48.6l-9.6-5.5l0-11l9.6,5.5L59.9,48.6z"/>
<path class="st0" d="M59.9,36l-9.6-5.5l0-11.6l9.6,5.5L59.9,36z"/>
</svg>
